<svg viewBox="0 0 568 145" style="background-color:#ffffff00" xmlns="http://www.w3.org/2000/svg" width="568" height="145"><g fill="#ffffff"><path d="M188.958 50.547c5.203 0 8.76 2.504 9.485 7.245h12.25c-.33-11.328-11.263-17.783-21.472-17.783-14.29 0-23.446 10.867-23.446 24.5s9.155 24.5 23.447 24.5c11.923 0 20.75-7.046 21.473-19.23h-12.25c-.462 5.465-3.69 8.694-9.485 8.694-7.904 0-10.934-6.916-10.934-13.964 0-7.047 3.03-13.963 10.934-13.963zM250.277 66.157v-.132c5.005-1.91 7.377-6.718 7.377-11.79 0-9.484-8.234-13.238-16.466-13.238h-23.975v47.027h12.25V70.9h9.288c5.796 0 6.52 4.872 6.85 9.615.198 1.383.33 5.862 1.384 7.51h12.12c-1.65-1.845-1.78-8.563-1.977-10.605-.33-4.478-1.91-10.012-6.85-11.263zm-10.54-4.742h-10.273V50.81h9.747c3.427 0 6.193 1.582 6.193 5.072 0 3.623-1.977 5.533-5.665 5.533zM277.544 40.997l-17.586 47.027h12.58l2.964-8.43h16.4l2.898 8.43h12.777l-17.584-47.027h-12.45zm.79 29.507l5.335-16.466h.13l5.204 16.466h-10.67zM337.48 72.348h-.132l-8.102-31.35H311.2v47.026h11.526V52.326h.13l9.88 35.698h9.354l9.88-35.698h.13v35.698h11.526V40.997h-18.045l-8.1 31.35zM372.123 88.024h12.252V40.997h-12.252v47.027zM510.144 88.024h12.25V40.997h-12.25v47.027zM528.914 40.997v9.814h13.084v37.214h12.25V50.81h13.085v-9.813h-38.42zM414.606 50.547c5.203 0 8.76 2.504 9.485 7.245h12.25c-.33-11.328-11.26-17.783-21.47-17.783-14.294 0-23.448 10.867-23.448 24.5s9.154 24.5 23.447 24.5c11.92 0 20.746-7.046 21.47-19.23h-12.25c-.46 5.465-3.688 8.694-9.484 8.694-7.903 0-10.933-6.916-10.933-13.964 0-7.047 3.03-13.963 10.933-13.963zM485.804 40.997H470.59L455.11 59.044V40.997H442.86v47.027h12.25v-14.49l5.006-5.27 12.647 19.76h15.213l-19.56-28.52 17.388-18.507z"/></g><g fill="#ffffff"><path d="M66.983 29.656H36.687l4.382-13.53h30.294L76.51.314H29.62L15.155 44.898h46.872l4.956-15.242zM40.117 63.062l-9.36 28.81-11.513-8.348 9.364-28.81-13.45-9.782L.667 89.526 38.6 117.06l14.483-44.578-12.968-9.42zM63.566 98.998l24.51 17.807-11.496 8.367-24.51-17.805-13.458 9.77 37.932 27.56 37.91-27.568-37.92-27.55-12.968 9.418zM137.917 44.957l-37.92 27.55 4.952 15.244 24.508-17.805 4.407 13.52-24.51 17.807 5.132 15.82 37.936-27.56-14.506-44.575zM107.054 44.904l-9.36-28.813 14.216-.012 9.363 28.812 16.63.006L123.418.303l-46.873.02 14.484 44.58h16.026z"/></g></svg>