<?xml version="1.0" encoding="UTF-8" standalone="no"?>
<svg
   viewBox="0 0 568 145"
   style="background-color:#ffffff00"
   width="568"
   height="145"
   version="1.1"
   id="svg2"
   sodipodi:docname="cramick-it-homework.svg"
   inkscape:version="1.3.2 (091e20e, 2023-11-25, custom)"
   xmlns:inkscape="http://www.inkscape.org/namespaces/inkscape"
   xmlns:sodipodi="http://sodipodi.sourceforge.net/DTD/sodipodi-0.dtd"
   xmlns="http://www.w3.org/2000/svg"
   xmlns:svg="http://www.w3.org/2000/svg">
  <defs
     id="defs2" />
  <sodipodi:namedview
     id="namedview2"
     pagecolor="#ffffff"
     bordercolor="#000000"
     borderopacity="0.25"
     inkscape:showpageshadow="2"
     inkscape:pageopacity="0.0"
     inkscape:pagecheckerboard="0"
     inkscape:deskcolor="#d1d1d1"
     inkscape:zoom="3.3556338"
     inkscape:cx="284"
     inkscape:cy="72.564533"
     inkscape:window-width="2560"
     inkscape:window-height="1377"
     inkscape:window-x="-8"
     inkscape:window-y="-8"
     inkscape:window-maximized="1"
     inkscape:current-layer="svg2" />
  <g
     fill="#ffffff"
     id="g1"
     style="fill:#2b0000">
    <path
       d="m 202.15046,29.372376 c 2.98796,0 5.03067,1.437989 5.44702,4.160635 h 7.03488 c -0.18951,-6.505407 -6.46808,-10.212363 -12.33086,-10.212363 -8.20642,0 -13.4645,6.240665 -13.4645,14.06978 0,7.829114 5.25751,14.069779 13.46507,14.069779 6.8471,0 11.91624,-4.046354 12.33145,-11.043341 h -7.0349 c -0.26532,3.138422 -2.11908,4.992762 -5.44701,4.992762 -4.53909,0 -6.27915,-3.971698 -6.27915,-8.0192 0,-4.046928 1.74006,-8.018626 6.27915,-8.018626 z m 35.21407,8.96446 v -0.0758 c 2.87426,-1.096868 4.23644,-3.857991 4.23644,-6.770723 0,-5.44644 -4.72859,-7.602275 -9.45604,-7.602275 h -13.76828 v 27.006511 h 7.03489 v -9.833914 h 5.33388 c 3.32851,0 3.74429,2.797876 3.9338,5.521671 0.1137,0.794225 0.18951,3.36641 0.79479,4.312818 h 6.96024 c -0.94756,-1.059541 -1.02221,-4.917532 -1.13534,-6.090205 -0.18952,-2.571611 -1.09688,-5.749658 -3.9338,-6.468078 z m -6.05287,-2.723221 h -5.89955 v -6.090204 h 5.59747 c 1.96805,0 3.55651,0.908506 3.55651,2.912731 0,2.080605 -1.13535,3.177473 -3.25329,3.177473 z m 21.71168,-11.725582 -10.09923,27.006511 h 7.2244 l 1.70216,-4.841152 h 9.41813 l 1.66426,4.841152 h 7.33753 L 260.17251,23.888033 h -7.14975 z m 0.45367,16.945184 3.06377,-9.456041 h 0.0747 l 2.98853,9.456041 h -6.12753 z m 33.96617,1.058966 h -0.0758 l -4.65276,-18.003575 h -10.3634 v 27.005936 h 6.61911 V 30.394015 h 0.0746 l 5.67386,20.500529 h 5.37178 l 5.67385,-20.500529 h 0.0747 v 20.500529 h 6.61911 V 23.888033 h -10.36282 l -4.65165,18.003575 z m 19.89468,9.002361 h 7.03603 V 23.888033 h -7.03603 z m 79.26224,0 h 7.0349 V 23.888033 h -7.0349 z m 10.77917,-27.006511 v 5.635952 h 7.51384 V 50.895119 H 411.928 V 29.523411 h 7.51441 V 23.888033 H 397.3787 Z m -65.64442,5.484343 c 2.98797,0 5.03066,1.437989 5.44702,4.160635 h 7.03489 c -0.18951,-6.505407 -6.46636,-10.212363 -12.32972,-10.212363 -8.20871,0 -13.46565,6.240665 -13.46565,14.06978 0,7.829114 5.25694,14.069779 13.46507,14.069779 6.84538,0 11.91395,-4.046354 12.32972,-11.043341 h -7.03489 c -0.26417,3.138422 -2.11793,4.992762 -5.44644,4.992762 -4.53851,0 -6.27857,-3.971698 -6.27857,-8.0192 0,-4.046928 1.74006,-8.018626 6.27857,-8.018626 z m 40.88736,-5.484343 h -8.73705 l -8.8898,10.363972 V 23.888033 h -7.03489 v 27.006511 h 7.03489 v -8.321269 l 2.87482,-3.026438 7.26288,11.347707 h 8.73647 L 362.63668,34.516173 Z"
       id="path1"
       style="fill:#2b0000;stroke-width:0.574277" />
  </g>
  <g
     fill="#ffffff"
     id="g2"
     style="fill:#2b0000"
     transform="matrix(0.5,0,0,0.5,106.72175,11.594954)">
    <path
       d="M 66.983,29.656 H 36.687 l 4.382,-13.53 H 71.363 L 76.51,0.314 H 29.62 L 15.155,44.898 H 62.027 Z M 40.117,63.062 30.757,91.872 19.244,83.524 28.608,54.714 15.158,44.932 0.667,89.526 38.6,117.06 53.083,72.482 40.115,63.062 Z m 23.449,35.936 24.51,17.807 -11.496,8.367 -24.51,-17.805 -13.458,9.77 37.932,27.56 37.91,-27.568 -37.92,-27.55 -12.968,9.418 z m 74.351,-54.041 -37.92,27.55 4.952,15.244 24.508,-17.805 4.407,13.52 -24.51,17.807 5.132,15.82 37.936,-27.56 -14.506,-44.575 z m -30.863,-0.053 -9.36,-28.813 14.216,-0.012 9.363,28.812 16.63,0.006 -14.485,-44.594 -46.873,0.02 14.484,44.58 h 16.026 z"
       id="path2"
       style="fill:#2b0000" />
  </g>
</svg>
